<mxfile host="Electron" modified="2024-06-28T10:57:54.827Z" agent="Mozilla/5.0 (Windows NT 10.0; Win64; x64) AppleWebKit/537.36 (KHTML, like Gecko) draw.io/24.5.3 Chrome/124.0.6367.207 Electron/30.0.6 Safari/537.36" etag="oAd4JNi2yrZpQF-K6hH1" version="24.5.3" type="device">
  <diagram name="development" id="DOWimPerzNUD4stiu_Wy">
    <mxGraphModel dx="1886" dy="614" grid="1" gridSize="10" guides="1" tooltips="1" connect="1" arrows="1" fold="1" page="1" pageScale="1" pageWidth="850" pageHeight="1100" math="0" shadow="0">
      <root>
        <mxCell id="0" />
        <mxCell id="1" parent="0" />
        <mxCell id="UbLsy5ZLPje_TelzxTCp-1" value="" style="rounded=0;whiteSpace=wrap;html=1;strokeWidth=3;" parent="1" vertex="1">
          <mxGeometry x="245.94" y="130" width="414.06" height="330" as="geometry" />
        </mxCell>
        <mxCell id="UbLsy5ZLPje_TelzxTCp-2" value="" style="rounded=0;whiteSpace=wrap;html=1;strokeWidth=3;" parent="1" vertex="1">
          <mxGeometry x="750" y="130" width="310" height="330" as="geometry" />
        </mxCell>
        <mxCell id="UbLsy5ZLPje_TelzxTCp-5" value="" style="group" parent="1" vertex="1" connectable="0">
          <mxGeometry x="265.94" y="150" width="40" height="290" as="geometry" />
        </mxCell>
        <mxCell id="UbLsy5ZLPje_TelzxTCp-3" value="" style="rounded=1;whiteSpace=wrap;html=1;" parent="UbLsy5ZLPje_TelzxTCp-5" vertex="1">
          <mxGeometry width="40" height="290" as="geometry" />
        </mxCell>
        <mxCell id="UbLsy5ZLPje_TelzxTCp-4" value="Caddy" style="text;html=1;align=center;verticalAlign=middle;whiteSpace=wrap;rounded=0;rotation=-90;fontStyle=1" parent="UbLsy5ZLPje_TelzxTCp-5" vertex="1">
          <mxGeometry x="-10" y="128.88888888888889" width="60" height="48.33333333333333" as="geometry" />
        </mxCell>
        <mxCell id="UbLsy5ZLPje_TelzxTCp-9" style="edgeStyle=orthogonalEdgeStyle;rounded=0;orthogonalLoop=1;jettySize=auto;html=1;" parent="1" source="UbLsy5ZLPje_TelzxTCp-6" target="UbLsy5ZLPje_TelzxTCp-8" edge="1">
          <mxGeometry relative="1" as="geometry" />
        </mxCell>
        <mxCell id="UbLsy5ZLPje_TelzxTCp-6" value="" style="ellipse;shape=cloud;whiteSpace=wrap;html=1;" parent="1" vertex="1">
          <mxGeometry x="-280" y="253" width="140" height="100" as="geometry" />
        </mxCell>
        <mxCell id="UbLsy5ZLPje_TelzxTCp-10" style="edgeStyle=orthogonalEdgeStyle;rounded=0;orthogonalLoop=1;jettySize=auto;html=1;" parent="1" source="UbLsy5ZLPje_TelzxTCp-20" target="UbLsy5ZLPje_TelzxTCp-4" edge="1">
          <mxGeometry relative="1" as="geometry">
            <mxPoint x="229.99999999999994" y="303.1" as="sourcePoint" />
          </mxGeometry>
        </mxCell>
        <mxCell id="UbLsy5ZLPje_TelzxTCp-8" value="" style="sketch=0;outlineConnect=0;fontColor=#232F3E;gradientColor=none;fillColor=#8C4FFF;strokeColor=none;dashed=0;verticalLabelPosition=bottom;verticalAlign=top;align=center;html=1;fontSize=12;fontStyle=0;aspect=fixed;pointerEvents=1;shape=mxgraph.aws4.nat_gateway;" parent="1" vertex="1">
          <mxGeometry x="-29" y="264.06" width="78" height="78" as="geometry" />
        </mxCell>
        <mxCell id="UbLsy5ZLPje_TelzxTCp-37" style="edgeStyle=orthogonalEdgeStyle;rounded=0;orthogonalLoop=1;jettySize=auto;html=1;" parent="1" target="UbLsy5ZLPje_TelzxTCp-35" edge="1">
          <mxGeometry relative="1" as="geometry">
            <mxPoint x="564.06" y="304" as="sourcePoint" />
            <Array as="points">
              <mxPoint x="690" y="304" />
              <mxPoint x="690" y="174" />
            </Array>
          </mxGeometry>
        </mxCell>
        <mxCell id="UbLsy5ZLPje_TelzxTCp-13" style="edgeStyle=orthogonalEdgeStyle;rounded=0;orthogonalLoop=1;jettySize=auto;html=1;" parent="1" source="UbLsy5ZLPje_TelzxTCp-3" target="UbLsy5ZLPje_TelzxTCp-12" edge="1">
          <mxGeometry relative="1" as="geometry" />
        </mxCell>
        <mxCell id="UbLsy5ZLPje_TelzxTCp-15" value="TCP 443" style="text;html=1;align=center;verticalAlign=middle;whiteSpace=wrap;rounded=0;" parent="1" vertex="1">
          <mxGeometry x="70" y="353" width="60" height="30" as="geometry" />
        </mxCell>
        <mxCell id="UbLsy5ZLPje_TelzxTCp-16" value="" style="image;html=1;image=img/lib/clip_art/networking/Firewall_02_128x128.png" parent="1" vertex="1">
          <mxGeometry x="60" y="264.06" width="80" height="80" as="geometry" />
        </mxCell>
        <mxCell id="UbLsy5ZLPje_TelzxTCp-18" value="182.156.74.101 =&amp;gt; 172.16.22.22" style="text;html=1;align=center;verticalAlign=middle;whiteSpace=wrap;rounded=0;" parent="1" vertex="1">
          <mxGeometry x="-190" y="234.06" width="211" height="30" as="geometry" />
        </mxCell>
        <mxCell id="UbLsy5ZLPje_TelzxTCp-19" value="fintrust-dev.techwave.net" style="text;html=1;align=center;verticalAlign=middle;whiteSpace=wrap;rounded=0;" parent="1" vertex="1">
          <mxGeometry x="-169" y="340" width="142" height="30" as="geometry" />
        </mxCell>
        <mxCell id="UbLsy5ZLPje_TelzxTCp-21" value="" style="edgeStyle=orthogonalEdgeStyle;rounded=0;orthogonalLoop=1;jettySize=auto;html=1;" parent="1" source="UbLsy5ZLPje_TelzxTCp-8" target="UbLsy5ZLPje_TelzxTCp-20" edge="1">
          <mxGeometry relative="1" as="geometry">
            <mxPoint x="49" y="303" as="sourcePoint" />
            <mxPoint x="216" y="303" as="targetPoint" />
          </mxGeometry>
        </mxCell>
        <mxCell id="UbLsy5ZLPje_TelzxTCp-20" value="SSL padlock" style="sketch=0;outlineConnect=0;fontColor=#232F3E;gradientColor=none;strokeColor=#232F3E;fillColor=#ffffff;dashed=0;verticalLabelPosition=bottom;verticalAlign=top;align=center;html=1;fontSize=12;fontStyle=0;aspect=fixed;shape=mxgraph.aws4.resourceIcon;resIcon=mxgraph.aws4.ssl_padlock;" parent="1" vertex="1">
          <mxGeometry x="160" y="280.97" width="44.06" height="44.06" as="geometry" />
        </mxCell>
        <mxCell id="UbLsy5ZLPje_TelzxTCp-22" value="No SSL" style="sketch=0;outlineConnect=0;fontColor=#232F3E;gradientColor=none;strokeColor=#232F3E;fillColor=#ffffff;dashed=0;verticalLabelPosition=bottom;verticalAlign=top;align=center;html=1;fontSize=12;fontStyle=0;aspect=fixed;shape=mxgraph.aws4.resourceIcon;resIcon=mxgraph.aws4.ssl_padlock;" parent="1" vertex="1">
          <mxGeometry x="320" y="274.94000000000005" width="44.06" height="44.06" as="geometry" />
        </mxCell>
        <mxCell id="UbLsy5ZLPje_TelzxTCp-23" value="" style="endArrow=none;html=1;rounded=0;fontStyle=1;strokeColor=#f90b0b;strokeWidth=5;" parent="1" edge="1">
          <mxGeometry width="50" height="50" relative="1" as="geometry">
            <mxPoint x="320" y="320" as="sourcePoint" />
            <mxPoint x="370" y="270" as="targetPoint" />
          </mxGeometry>
        </mxCell>
        <mxCell id="UbLsy5ZLPje_TelzxTCp-24" value="compute server" style="text;html=1;align=center;verticalAlign=middle;whiteSpace=wrap;rounded=0;fontStyle=1" parent="1" vertex="1">
          <mxGeometry x="382.97" y="100" width="140" height="30" as="geometry" />
        </mxCell>
        <mxCell id="UbLsy5ZLPje_TelzxTCp-25" value="80" style="text;html=1;align=center;verticalAlign=middle;whiteSpace=wrap;rounded=0;" parent="1" vertex="1">
          <mxGeometry x="316" y="234" width="60" height="30" as="geometry" />
        </mxCell>
        <mxCell id="UbLsy5ZLPje_TelzxTCp-26" value="" style="group" parent="1" vertex="1" connectable="0">
          <mxGeometry x="830" y="340" width="60" height="109" as="geometry" />
        </mxCell>
        <mxCell id="UbLsy5ZLPje_TelzxTCp-27" value="mongo" style="shape=cylinder3;whiteSpace=wrap;html=1;boundedLbl=1;backgroundOutline=1;size=15;" parent="UbLsy5ZLPje_TelzxTCp-26" vertex="1">
          <mxGeometry width="60" height="80" as="geometry" />
        </mxCell>
        <mxCell id="UbLsy5ZLPje_TelzxTCp-28" value="M" style="ellipse;whiteSpace=wrap;html=1;fillColor=#00FF00;strokeColor=none;" parent="UbLsy5ZLPje_TelzxTCp-26" vertex="1">
          <mxGeometry x="10" y="5" width="40" height="20" as="geometry" />
        </mxCell>
        <mxCell id="UbLsy5ZLPje_TelzxTCp-29" value="" style="image;sketch=0;aspect=fixed;html=1;points=[];align=center;fontSize=12;image=img/lib/mscae/Docker.svg;" parent="UbLsy5ZLPje_TelzxTCp-26" vertex="1">
          <mxGeometry x="10" y="68" width="50" height="41" as="geometry" />
        </mxCell>
        <mxCell id="UbLsy5ZLPje_TelzxTCp-30" value="" style="group" parent="1" vertex="1" connectable="0">
          <mxGeometry x="890" y="231" width="60" height="109" as="geometry" />
        </mxCell>
        <mxCell id="UbLsy5ZLPje_TelzxTCp-31" value="postgres" style="shape=cylinder3;whiteSpace=wrap;html=1;boundedLbl=1;backgroundOutline=1;size=15;" parent="UbLsy5ZLPje_TelzxTCp-30" vertex="1">
          <mxGeometry width="60" height="80" as="geometry" />
        </mxCell>
        <mxCell id="UbLsy5ZLPje_TelzxTCp-32" value="P" style="ellipse;whiteSpace=wrap;html=1;fillColor=#00FF00;strokeColor=none;" parent="UbLsy5ZLPje_TelzxTCp-30" vertex="1">
          <mxGeometry x="10" y="5" width="40" height="20" as="geometry" />
        </mxCell>
        <mxCell id="UbLsy5ZLPje_TelzxTCp-33" value="" style="image;sketch=0;aspect=fixed;html=1;points=[];align=center;fontSize=12;image=img/lib/mscae/Docker.svg;" parent="UbLsy5ZLPje_TelzxTCp-30" vertex="1">
          <mxGeometry x="10" y="68" width="50" height="41" as="geometry" />
        </mxCell>
        <mxCell id="UbLsy5ZLPje_TelzxTCp-48" style="edgeStyle=orthogonalEdgeStyle;rounded=0;orthogonalLoop=1;jettySize=auto;html=1;" parent="1" source="UbLsy5ZLPje_TelzxTCp-35" target="UbLsy5ZLPje_TelzxTCp-47" edge="1">
          <mxGeometry relative="1" as="geometry" />
        </mxCell>
        <mxCell id="UbLsy5ZLPje_TelzxTCp-35" value="" style="sketch=0;outlineConnect=0;fontColor=#ffffff;fillColor=#e51400;strokeColor=#B20000;dashed=0;verticalLabelPosition=bottom;verticalAlign=top;align=center;html=1;fontSize=12;fontStyle=0;aspect=fixed;pointerEvents=1;shape=mxgraph.aws4.queue;" parent="1" vertex="1">
          <mxGeometry x="950" y="150" width="78" height="47" as="geometry" />
        </mxCell>
        <mxCell id="UbLsy5ZLPje_TelzxTCp-36" value="" style="image;sketch=0;aspect=fixed;html=1;points=[];align=center;fontSize=12;image=img/lib/mscae/Docker.svg;" parent="1" vertex="1">
          <mxGeometry x="964" y="183.06" width="50" height="41" as="geometry" />
        </mxCell>
        <mxCell id="UbLsy5ZLPje_TelzxTCp-39" style="edgeStyle=orthogonalEdgeStyle;rounded=0;orthogonalLoop=1;jettySize=auto;html=1;" parent="1" source="UbLsy5ZLPje_TelzxTCp-65" target="UbLsy5ZLPje_TelzxTCp-27" edge="1">
          <mxGeometry relative="1" as="geometry">
            <mxPoint x="564.06" y="304" as="sourcePoint" />
            <Array as="points">
              <mxPoint x="690" y="304" />
              <mxPoint x="690" y="390" />
            </Array>
          </mxGeometry>
        </mxCell>
        <mxCell id="UbLsy5ZLPje_TelzxTCp-38" style="edgeStyle=orthogonalEdgeStyle;rounded=0;orthogonalLoop=1;jettySize=auto;html=1;" parent="1" source="UbLsy5ZLPje_TelzxTCp-65" target="UbLsy5ZLPje_TelzxTCp-31" edge="1">
          <mxGeometry relative="1" as="geometry">
            <mxPoint x="564.06" y="302.1" as="sourcePoint" />
          </mxGeometry>
        </mxCell>
        <mxCell id="UbLsy5ZLPje_TelzxTCp-40" value="TCP 5672, 15672" style="text;html=1;align=center;verticalAlign=middle;whiteSpace=wrap;rounded=0;" parent="1" vertex="1">
          <mxGeometry x="820" y="140" width="100" height="30" as="geometry" />
        </mxCell>
        <mxCell id="UbLsy5ZLPje_TelzxTCp-41" value="TCP 5432" style="text;html=1;align=center;verticalAlign=middle;whiteSpace=wrap;rounded=0;" parent="1" vertex="1">
          <mxGeometry x="780" y="234.06" width="100" height="30" as="geometry" />
        </mxCell>
        <mxCell id="UbLsy5ZLPje_TelzxTCp-42" value="TCP 27017" style="text;html=1;align=center;verticalAlign=middle;whiteSpace=wrap;rounded=0;" parent="1" vertex="1">
          <mxGeometry x="740" y="360" width="100" height="30" as="geometry" />
        </mxCell>
        <mxCell id="UbLsy5ZLPje_TelzxTCp-43" value="data server" style="text;html=1;align=center;verticalAlign=middle;whiteSpace=wrap;rounded=0;fontStyle=1" parent="1" vertex="1">
          <mxGeometry x="850" y="100" width="160" height="30" as="geometry" />
        </mxCell>
        <mxCell id="UbLsy5ZLPje_TelzxTCp-47" value="" style="outlineConnect=0;dashed=0;verticalLabelPosition=bottom;verticalAlign=top;align=center;html=1;shape=mxgraph.aws3.volume;fillColor=#E05243;gradientColor=none;" parent="1" vertex="1">
          <mxGeometry x="1000" y="342.5" width="52.5" height="75" as="geometry" />
        </mxCell>
        <mxCell id="UbLsy5ZLPje_TelzxTCp-49" style="edgeStyle=orthogonalEdgeStyle;rounded=0;orthogonalLoop=1;jettySize=auto;html=1;" parent="1" source="UbLsy5ZLPje_TelzxTCp-31" target="UbLsy5ZLPje_TelzxTCp-47" edge="1">
          <mxGeometry relative="1" as="geometry" />
        </mxCell>
        <mxCell id="UbLsy5ZLPje_TelzxTCp-50" style="edgeStyle=orthogonalEdgeStyle;rounded=0;orthogonalLoop=1;jettySize=auto;html=1;" parent="1" source="UbLsy5ZLPje_TelzxTCp-27" target="UbLsy5ZLPje_TelzxTCp-47" edge="1">
          <mxGeometry relative="1" as="geometry" />
        </mxCell>
        <mxCell id="UbLsy5ZLPje_TelzxTCp-51" value="&lt;b&gt;Volume&lt;/b&gt;" style="text;html=1;align=center;verticalAlign=middle;whiteSpace=wrap;rounded=0;" parent="1" vertex="1">
          <mxGeometry x="996" y="420" width="60" height="30" as="geometry" />
        </mxCell>
        <mxCell id="UbLsy5ZLPje_TelzxTCp-62" style="edgeStyle=orthogonalEdgeStyle;rounded=0;orthogonalLoop=1;jettySize=auto;html=1;" parent="1" source="UbLsy5ZLPje_TelzxTCp-61" target="UbLsy5ZLPje_TelzxTCp-6" edge="1">
          <mxGeometry relative="1" as="geometry" />
        </mxCell>
        <mxCell id="UbLsy5ZLPje_TelzxTCp-61" value="devices" style="sketch=0;outlineConnect=0;gradientColor=none;fontColor=#545B64;strokeColor=none;fillColor=#879196;dashed=0;verticalLabelPosition=bottom;verticalAlign=top;align=center;html=1;fontSize=12;fontStyle=0;aspect=fixed;shape=mxgraph.aws4.illustration_devices;pointerEvents=1" parent="1" vertex="1">
          <mxGeometry x="-425" y="267" width="100" height="73" as="geometry" />
        </mxCell>
        <mxCell id="UbLsy5ZLPje_TelzxTCp-74" value="" style="group" parent="1" vertex="1" connectable="0">
          <mxGeometry x="415" y="203.97" width="125" height="174.03" as="geometry" />
        </mxCell>
        <mxCell id="UbLsy5ZLPje_TelzxTCp-65" value="" style="rounded=0;whiteSpace=wrap;html=1;" parent="UbLsy5ZLPje_TelzxTCp-74" vertex="1">
          <mxGeometry width="125" height="166.03" as="geometry" />
        </mxCell>
        <mxCell id="UbLsy5ZLPje_TelzxTCp-66" value="" style="aspect=fixed;sketch=0;html=1;dashed=0;whitespace=wrap;verticalLabelPosition=bottom;verticalAlign=top;fillColor=#2875E2;strokeColor=#ffffff;points=[[0.005,0.63,0],[0.1,0.2,0],[0.9,0.2,0],[0.5,0,0],[0.995,0.63,0],[0.72,0.99,0],[0.5,1,0],[0.28,0.99,0]];shape=mxgraph.kubernetes.icon2;prIcon=pod" parent="UbLsy5ZLPje_TelzxTCp-74" vertex="1">
          <mxGeometry x="29.47999999999996" y="23.91118118279571" width="26.038145698924733" height="24.993763440860217" as="geometry" />
        </mxCell>
        <mxCell id="UbLsy5ZLPje_TelzxTCp-67" value="" style="aspect=fixed;sketch=0;html=1;dashed=0;whitespace=wrap;verticalLabelPosition=bottom;verticalAlign=top;fillColor=#2875E2;strokeColor=#ffffff;points=[[0.005,0.63,0],[0.1,0.2,0],[0.9,0.2,0],[0.5,0,0],[0.995,0.63,0],[0.72,0.99,0],[0.5,1,0],[0.28,0.99,0]];shape=mxgraph.kubernetes.icon2;prIcon=pod" parent="UbLsy5ZLPje_TelzxTCp-74" vertex="1">
          <mxGeometry x="71.08999999999997" y="23.91118118279571" width="26.038145698924733" height="24.993763440860217" as="geometry" />
        </mxCell>
        <mxCell id="UbLsy5ZLPje_TelzxTCp-68" value="" style="aspect=fixed;sketch=0;html=1;dashed=0;whitespace=wrap;verticalLabelPosition=bottom;verticalAlign=top;fillColor=#2875E2;strokeColor=#ffffff;points=[[0.005,0.63,0],[0.1,0.2,0],[0.9,0.2,0],[0.5,0,0],[0.995,0.63,0],[0.72,0.99,0],[0.5,1,0],[0.28,0.99,0]];shape=mxgraph.kubernetes.icon2;prIcon=pod" parent="UbLsy5ZLPje_TelzxTCp-74" vertex="1">
          <mxGeometry x="29.479999999999947" y="60.51811827956989" width="26.038145698924733" height="24.993763440860217" as="geometry" />
        </mxCell>
        <mxCell id="UbLsy5ZLPje_TelzxTCp-69" value="" style="aspect=fixed;sketch=0;html=1;dashed=0;whitespace=wrap;verticalLabelPosition=bottom;verticalAlign=top;fillColor=#2875E2;strokeColor=#ffffff;points=[[0.005,0.63,0],[0.1,0.2,0],[0.9,0.2,0],[0.5,0,0],[0.995,0.63,0],[0.72,0.99,0],[0.5,1,0],[0.28,0.99,0]];shape=mxgraph.kubernetes.icon2;prIcon=pod" parent="UbLsy5ZLPje_TelzxTCp-74" vertex="1">
          <mxGeometry x="69.99999999999994" y="60.51811827956989" width="26.038145698924733" height="24.993763440860217" as="geometry" />
        </mxCell>
        <mxCell id="UbLsy5ZLPje_TelzxTCp-70" value="" style="aspect=fixed;sketch=0;html=1;dashed=0;whitespace=wrap;verticalLabelPosition=bottom;verticalAlign=top;fillColor=#2875E2;strokeColor=#ffffff;points=[[0.005,0.63,0],[0.1,0.2,0],[0.9,0.2,0],[0.5,0,0],[0.995,0.63,0],[0.72,0.99,0],[0.5,1,0],[0.28,0.99,0]];shape=mxgraph.kubernetes.icon2;prIcon=pod" parent="UbLsy5ZLPje_TelzxTCp-74" vertex="1">
          <mxGeometry x="29.47999999999996" y="97.10720268817205" width="26.038145698924733" height="24.993763440860217" as="geometry" />
        </mxCell>
        <mxCell id="UbLsy5ZLPje_TelzxTCp-71" value="" style="aspect=fixed;sketch=0;html=1;dashed=0;whitespace=wrap;verticalLabelPosition=bottom;verticalAlign=top;fillColor=#2875E2;strokeColor=#ffffff;points=[[0.005,0.63,0],[0.1,0.2,0],[0.9,0.2,0],[0.5,0,0],[0.995,0.63,0],[0.72,0.99,0],[0.5,1,0],[0.28,0.99,0]];shape=mxgraph.kubernetes.icon2;prIcon=pod" parent="UbLsy5ZLPje_TelzxTCp-74" vertex="1">
          <mxGeometry x="69.99999999999997" y="97.10720268817205" width="26.038145698924733" height="24.993763440860217" as="geometry" />
        </mxCell>
        <mxCell id="UbLsy5ZLPje_TelzxTCp-81" value="" style="aspect=fixed;sketch=0;html=1;dashed=0;whitespace=wrap;verticalLabelPosition=bottom;verticalAlign=top;fillColor=#2875E2;strokeColor=#ffffff;points=[[0.005,0.63,0],[0.1,0.2,0],[0.9,0.2,0],[0.5,0,0],[0.995,0.63,0],[0.72,0.99,0],[0.5,1,0],[0.28,0.99,0]];shape=mxgraph.kubernetes.icon2;kubernetesLabel=1;prIcon=svc" parent="UbLsy5ZLPje_TelzxTCp-74" vertex="1">
          <mxGeometry x="29.480000000000018" y="146.03" width="29.17" height="28" as="geometry" />
        </mxCell>
        <mxCell id="UbLsy5ZLPje_TelzxTCp-82" value="" style="aspect=fixed;sketch=0;html=1;dashed=0;whitespace=wrap;verticalLabelPosition=bottom;verticalAlign=top;fillColor=#2875E2;strokeColor=#ffffff;points=[[0.005,0.63,0],[0.1,0.2,0],[0.9,0.2,0],[0.5,0,0],[0.995,0.63,0],[0.72,0.99,0],[0.5,1,0],[0.28,0.99,0]];shape=mxgraph.kubernetes.icon2;kubernetesLabel=1;prIcon=svc" parent="UbLsy5ZLPje_TelzxTCp-74" vertex="1">
          <mxGeometry x="71.09000000000003" y="146.03" width="29.17" height="28" as="geometry" />
        </mxCell>
        <mxCell id="UbLsy5ZLPje_TelzxTCp-12" value="" style="aspect=fixed;sketch=0;html=1;dashed=0;whitespace=wrap;verticalLabelPosition=bottom;verticalAlign=top;fillColor=#2875E2;strokeColor=#ffffff;points=[[0.005,0.63,0],[0.1,0.2,0],[0.9,0.2,0],[0.5,0,0],[0.995,0.63,0],[0.72,0.99,0],[0.5,1,0],[0.28,0.99,0]];shape=mxgraph.kubernetes.icon2;prIcon=ing" parent="1" vertex="1">
          <mxGeometry x="380" y="271" width="50" height="48" as="geometry" />
        </mxCell>
        <mxCell id="UbLsy5ZLPje_TelzxTCp-84" value="" style="fillColor=#28A8E0;verticalLabelPosition=bottom;sketch=0;html=1;strokeColor=#ffffff;verticalAlign=top;align=center;points=[[0.145,0.145,0],[0.5,0,0],[0.855,0.145,0],[1,0.5,0],[0.855,0.855,0],[0.5,1,0],[0.145,0.855,0],[0,0.5,0]];pointerEvents=1;shape=mxgraph.cisco_safe.compositeIcon;bgIcon=ellipse;resIcon=mxgraph.cisco_safe.capability.load_balancer;rotation=-90;" parent="1" vertex="1">
          <mxGeometry x="456" y="407" width="43" height="43" as="geometry" />
        </mxCell>
        <mxCell id="UbLsy5ZLPje_TelzxTCp-87" value="haproxy exposing k8s nodeport services" style="text;html=1;align=center;verticalAlign=middle;whiteSpace=wrap;rounded=0;" parent="1" vertex="1">
          <mxGeometry x="502.5" y="413.5" width="107.5" height="30" as="geometry" />
        </mxCell>
        <mxCell id="UbLsy5ZLPje_TelzxTCp-88" value="" style="sketch=0;aspect=fixed;pointerEvents=1;shadow=0;dashed=0;html=1;strokeColor=none;labelPosition=center;verticalLabelPosition=bottom;verticalAlign=top;align=center;fillColor=#00188D;shape=mxgraph.mscae.enterprise.workstation_client" parent="1" vertex="1">
          <mxGeometry x="452.5" y="500" width="50" height="50" as="geometry" />
        </mxCell>
        <mxCell id="UbLsy5ZLPje_TelzxTCp-89" style="edgeStyle=orthogonalEdgeStyle;rounded=0;orthogonalLoop=1;jettySize=auto;html=1;entryX=0.298;entryY=0.512;entryDx=0;entryDy=0;entryPerimeter=0;" parent="1" source="UbLsy5ZLPje_TelzxTCp-88" target="UbLsy5ZLPje_TelzxTCp-84" edge="1">
          <mxGeometry relative="1" as="geometry" />
        </mxCell>
        <mxCell id="9qTQWylVRLBOsFncxg86-1" style="edgeStyle=orthogonalEdgeStyle;rounded=0;orthogonalLoop=1;jettySize=auto;html=1;entryX=0.422;entryY=0.529;entryDx=0;entryDy=0;entryPerimeter=0;curved=1;" parent="1" source="UbLsy5ZLPje_TelzxTCp-84" target="UbLsy5ZLPje_TelzxTCp-81" edge="1">
          <mxGeometry relative="1" as="geometry" />
        </mxCell>
        <mxCell id="9qTQWylVRLBOsFncxg86-2" style="edgeStyle=orthogonalEdgeStyle;rounded=0;orthogonalLoop=1;jettySize=auto;html=1;entryX=0.422;entryY=0.557;entryDx=0;entryDy=0;entryPerimeter=0;curved=1;" parent="1" source="UbLsy5ZLPje_TelzxTCp-84" target="UbLsy5ZLPje_TelzxTCp-82" edge="1">
          <mxGeometry relative="1" as="geometry" />
        </mxCell>
        <mxCell id="9qTQWylVRLBOsFncxg86-3" value="" style="rounded=0;whiteSpace=wrap;html=1;strokeWidth=3;" parent="1" vertex="1">
          <mxGeometry x="436" y="690" width="414.06" height="350" as="geometry" />
        </mxCell>
        <mxCell id="9qTQWylVRLBOsFncxg86-4" value="build server" style="text;html=1;align=center;verticalAlign=middle;whiteSpace=wrap;rounded=0;fontStyle=1" parent="1" vertex="1">
          <mxGeometry x="523.03" y="660" width="216.97" height="30" as="geometry" />
        </mxCell>
        <mxCell id="9qTQWylVRLBOsFncxg86-6" value="reposilite" style="rounded=1;whiteSpace=wrap;html=1;" parent="1" vertex="1">
          <mxGeometry x="690" y="720" width="120" height="40" as="geometry" />
        </mxCell>
        <mxCell id="9qTQWylVRLBOsFncxg86-19" style="edgeStyle=orthogonalEdgeStyle;rounded=0;orthogonalLoop=1;jettySize=auto;html=1;" parent="1" source="9qTQWylVRLBOsFncxg86-7" target="9qTQWylVRLBOsFncxg86-12" edge="1">
          <mxGeometry relative="1" as="geometry">
            <Array as="points">
              <mxPoint x="350" y="840" />
              <mxPoint x="350" y="840" />
            </Array>
          </mxGeometry>
        </mxCell>
        <mxCell id="9qTQWylVRLBOsFncxg86-20" style="edgeStyle=orthogonalEdgeStyle;rounded=0;orthogonalLoop=1;jettySize=auto;html=1;" parent="1" source="9qTQWylVRLBOsFncxg86-7" target="9qTQWylVRLBOsFncxg86-6" edge="1">
          <mxGeometry relative="1" as="geometry" />
        </mxCell>
        <mxCell id="9qTQWylVRLBOsFncxg86-21" style="edgeStyle=orthogonalEdgeStyle;rounded=0;orthogonalLoop=1;jettySize=auto;html=1;" parent="1" source="9qTQWylVRLBOsFncxg86-7" target="9qTQWylVRLBOsFncxg86-9" edge="1">
          <mxGeometry relative="1" as="geometry" />
        </mxCell>
        <mxCell id="9qTQWylVRLBOsFncxg86-23" style="edgeStyle=orthogonalEdgeStyle;rounded=0;orthogonalLoop=1;jettySize=auto;html=1;" parent="1" source="9qTQWylVRLBOsFncxg86-7" target="9qTQWylVRLBOsFncxg86-10" edge="1">
          <mxGeometry relative="1" as="geometry" />
        </mxCell>
        <mxCell id="9qTQWylVRLBOsFncxg86-25" style="edgeStyle=orthogonalEdgeStyle;rounded=0;orthogonalLoop=1;jettySize=auto;html=1;" parent="1" source="9qTQWylVRLBOsFncxg86-7" target="9qTQWylVRLBOsFncxg86-24" edge="1">
          <mxGeometry relative="1" as="geometry" />
        </mxCell>
        <mxCell id="9qTQWylVRLBOsFncxg86-7" value="gitlab-runner" style="rounded=1;whiteSpace=wrap;html=1;" parent="1" vertex="1">
          <mxGeometry x="462.97" y="710" width="60" height="310" as="geometry" />
        </mxCell>
        <mxCell id="9qTQWylVRLBOsFncxg86-8" value="docker" style="rounded=1;whiteSpace=wrap;html=1;" parent="1" vertex="1">
          <mxGeometry x="550" y="980" width="120" height="40" as="geometry" />
        </mxCell>
        <mxCell id="9qTQWylVRLBOsFncxg86-9" value="sonarqube" style="rounded=1;whiteSpace=wrap;html=1;" parent="1" vertex="1">
          <mxGeometry x="690" y="785" width="120" height="40" as="geometry" />
        </mxCell>
        <mxCell id="9qTQWylVRLBOsFncxg86-10" value="minikube" style="rounded=1;whiteSpace=wrap;html=1;" parent="1" vertex="1">
          <mxGeometry x="690" y="845" width="120" height="40" as="geometry" />
        </mxCell>
        <mxCell id="9qTQWylVRLBOsFncxg86-11" value="postgres" style="rounded=1;whiteSpace=wrap;html=1;" parent="1" vertex="1">
          <mxGeometry x="690" y="980" width="120" height="40" as="geometry" />
        </mxCell>
        <mxCell id="9qTQWylVRLBOsFncxg86-14" style="edgeStyle=orthogonalEdgeStyle;rounded=0;orthogonalLoop=1;jettySize=auto;html=1;" parent="1" source="9qTQWylVRLBOsFncxg86-12" target="9qTQWylVRLBOsFncxg86-7" edge="1">
          <mxGeometry relative="1" as="geometry">
            <Array as="points">
              <mxPoint x="360" y="890" />
              <mxPoint x="360" y="890" />
            </Array>
          </mxGeometry>
        </mxCell>
        <mxCell id="9qTQWylVRLBOsFncxg86-12" value="Gitlab&amp;nbsp;&lt;div&gt;Techwave&lt;/div&gt;" style="ellipse;shape=cloud;whiteSpace=wrap;html=1;" parent="1" vertex="1">
          <mxGeometry x="130" y="825" width="120" height="80" as="geometry" />
        </mxCell>
        <mxCell id="9qTQWylVRLBOsFncxg86-16" value="execute pipelines" style="text;html=1;align=center;verticalAlign=middle;whiteSpace=wrap;rounded=0;" parent="1" vertex="1">
          <mxGeometry x="290" y="865" width="104.06" height="30" as="geometry" />
        </mxCell>
        <mxCell id="9qTQWylVRLBOsFncxg86-17" value="store built artifacts" style="text;html=1;align=center;verticalAlign=middle;whiteSpace=wrap;rounded=0;" parent="1" vertex="1">
          <mxGeometry x="287.03000000000003" y="810" width="110" height="30" as="geometry" />
        </mxCell>
        <mxCell id="9qTQWylVRLBOsFncxg86-18" style="edgeStyle=orthogonalEdgeStyle;rounded=0;orthogonalLoop=1;jettySize=auto;html=1;entryX=0.898;entryY=1.002;entryDx=0;entryDy=0;entryPerimeter=0;" parent="1" source="9qTQWylVRLBOsFncxg86-7" target="UbLsy5ZLPje_TelzxTCp-1" edge="1">
          <mxGeometry relative="1" as="geometry" />
        </mxCell>
        <mxCell id="9qTQWylVRLBOsFncxg86-24" value="depscan" style="rounded=1;whiteSpace=wrap;html=1;" parent="1" vertex="1">
          <mxGeometry x="690" y="905" width="120" height="40" as="geometry" />
        </mxCell>
        <mxCell id="9qTQWylVRLBOsFncxg86-28" style="edgeStyle=orthogonalEdgeStyle;rounded=0;orthogonalLoop=1;jettySize=auto;html=1;" parent="1" source="9qTQWylVRLBOsFncxg86-27" target="9qTQWylVRLBOsFncxg86-6" edge="1">
          <mxGeometry relative="1" as="geometry" />
        </mxCell>
        <mxCell id="9qTQWylVRLBOsFncxg86-29" style="edgeStyle=orthogonalEdgeStyle;rounded=0;orthogonalLoop=1;jettySize=auto;html=1;" parent="1" source="9qTQWylVRLBOsFncxg86-27" target="9qTQWylVRLBOsFncxg86-9" edge="1">
          <mxGeometry relative="1" as="geometry">
            <Array as="points">
              <mxPoint x="920" y="741" />
              <mxPoint x="920" y="800" />
            </Array>
          </mxGeometry>
        </mxCell>
        <mxCell id="9qTQWylVRLBOsFncxg86-30" style="edgeStyle=orthogonalEdgeStyle;rounded=0;orthogonalLoop=1;jettySize=auto;html=1;" parent="1" source="9qTQWylVRLBOsFncxg86-27" target="9qTQWylVRLBOsFncxg86-10" edge="1">
          <mxGeometry relative="1" as="geometry">
            <Array as="points">
              <mxPoint x="950" y="741" />
              <mxPoint x="950" y="860" />
            </Array>
          </mxGeometry>
        </mxCell>
        <mxCell id="9qTQWylVRLBOsFncxg86-27" value="" style="verticalLabelPosition=bottom;sketch=0;html=1;fillColor=#282828;strokeColor=none;verticalAlign=top;pointerEvents=1;align=center;shape=mxgraph.cisco_safe.people_places_things_icons.icon2;" parent="1" vertex="1">
          <mxGeometry x="996" y="720" width="50" height="41" as="geometry" />
        </mxCell>
        <mxCell id="9qTQWylVRLBOsFncxg86-31" value="DevOps Engineers and Developers" style="text;html=1;align=center;verticalAlign=middle;whiteSpace=wrap;rounded=0;" parent="1" vertex="1">
          <mxGeometry x="991" y="790" width="60" height="30" as="geometry" />
        </mxCell>
        <mxCell id="9qTQWylVRLBOsFncxg86-34" style="edgeStyle=orthogonalEdgeStyle;rounded=0;orthogonalLoop=1;jettySize=auto;html=1;" parent="1" source="9qTQWylVRLBOsFncxg86-32" target="9qTQWylVRLBOsFncxg86-12" edge="1">
          <mxGeometry relative="1" as="geometry" />
        </mxCell>
        <mxCell id="9qTQWylVRLBOsFncxg86-32" value="" style="verticalLabelPosition=bottom;sketch=0;html=1;fillColor=#282828;strokeColor=none;verticalAlign=top;pointerEvents=1;align=center;shape=mxgraph.cisco_safe.people_places_things_icons.icon2;" parent="1" vertex="1">
          <mxGeometry x="21" y="845" width="50" height="41" as="geometry" />
        </mxCell>
        <mxCell id="9qTQWylVRLBOsFncxg86-33" value="DevOps Engineers and Developers" style="text;html=1;align=center;verticalAlign=middle;whiteSpace=wrap;rounded=0;" parent="1" vertex="1">
          <mxGeometry x="-8.5" y="905" width="109" height="30" as="geometry" />
        </mxCell>
        <mxCell id="9qTQWylVRLBOsFncxg86-35" value="Commit Code, Execute Pipelines etc," style="text;html=1;align=center;verticalAlign=middle;whiteSpace=wrap;rounded=0;" parent="1" vertex="1">
          <mxGeometry x="-27" y="795" width="150" height="30" as="geometry" />
        </mxCell>
        <mxCell id="9qTQWylVRLBOsFncxg86-36" value="Developers using tools such as DBeaver, Postman etc to work with k8s services" style="text;html=1;align=center;verticalAlign=middle;whiteSpace=wrap;rounded=0;" parent="1" vertex="1">
          <mxGeometry x="290" y="560" width="150" height="30" as="geometry" />
        </mxCell>
        <mxCell id="Yqwq7YwV12yvbKvzPmYu-1" value="Openobserve" style="rounded=0;whiteSpace=wrap;html=1;" vertex="1" parent="1">
          <mxGeometry x="415" y="150" width="185" height="20" as="geometry" />
        </mxCell>
        <mxCell id="Yqwq7YwV12yvbKvzPmYu-7" style="edgeStyle=orthogonalEdgeStyle;rounded=0;orthogonalLoop=1;jettySize=auto;html=1;entryX=0.341;entryY=0.97;entryDx=0;entryDy=0;entryPerimeter=0;" edge="1" parent="1" source="UbLsy5ZLPje_TelzxTCp-65" target="Yqwq7YwV12yvbKvzPmYu-1">
          <mxGeometry relative="1" as="geometry" />
        </mxCell>
        <mxCell id="Yqwq7YwV12yvbKvzPmYu-8" value="logs" style="text;html=1;align=center;verticalAlign=middle;whiteSpace=wrap;rounded=0;" vertex="1" parent="1">
          <mxGeometry x="477.97" y="177" width="30" height="20" as="geometry" />
        </mxCell>
      </root>
    </mxGraphModel>
  </diagram>
</mxfile>
